<?xml version="1.0" standalone="no"?>
<!DOCTYPE svg PUBLIC "-//W3C//DTD SVG 1.1//EN" "http://www.w3.org/Graphics/SVG/1.1/DTD/svg11.dtd" >
<!--
2013-9-30: Created.
-->
<svg>
<metadata>
Created by iconfont
</metadata>
<defs>

<font id="iconfont" horiz-adv-x="1024" >
  <font-face
    font-family="iconfont"
    font-weight="500"
    font-stretch="normal"
    units-per-em="1024"
    ascent="896"
    descent="-128"
  />
    <missing-glyph />
    
    <glyph glyph-name="x" unicode="x" horiz-adv-x="1001"
d="M281 543q-27 -1 -53 -1h-83q-18 0 -36.5 -6t-32.5 -18.5t-23 -32t-9 -45.5v-76h912v41q0 16 -0.5 30t-0.5 18q0 13 -5 29t-17 29.5t-31.5 22.5t-49.5 9h-133v-97h-438v97zM955 310v-52q0 -23 0.5 -52t0.5 -58t-10.5 -47.5t-26 -30t-33 -16t-31.5 -4.5q-14 -1 -29.5 -0.5
t-29.5 0.5h-32l-45 128h-439l-44 -128h-29h-34q-20 0 -45 1q-25 0 -41 9.5t-25.5 23t-13.5 29.5t-4 30v167h911zM163 247q-12 0 -21 -8.5t-9 -21.5t9 -21.5t21 -8.5q13 0 22 8.5t9 21.5t-9 21.5t-22 8.5zM316 123q-8 -26 -14 -48q-5 -19 -10.5 -37t-7.5 -25t-3 -15t1 -14.5
t9.5 -10.5t21.5 -4h37h67h81h80h64h36q23 0 34 12t2 38q-5 13 -9.5 30.5t-9.5 34.5q-5 19 -11 39h-368zM336 498v228q0 11 2.5 23t10 21.5t20.5 15.5t34 6h188q31 0 51.5 -14.5t20.5 -52.5v-227h-327z" />
    

    
    <glyph glyph-name="dianhua" unicode="&#58883;" d="M456.53 285.561c-71.475 71.43-139.791 154.183-107.033 186.896 46.792 46.838 87.583 75.671 4.65 178.913-82.936 103.239-138.256 23.959-183.65-21.434-52.298-52.344-2.752-247.454 190.101-440.349 192.856-192.809 388.009-242.443 440.349-190.059 45.394 45.351 124.628 100.625 21.437 183.603-103.195 82.983-132.074 42.19-178.914-4.645C610.712 145.862 528.002 214.132 456.53 285.561L456.53 285.561 456.53 285.561z"  horiz-adv-x="1024" />

    
    <glyph glyph-name="less" unicode="&#58902;" d="M72.727906 103.01151l409.500535 448.765817c7.809873 7.844665 18.195408 11.197016 28.435633 10.68127 10.239202 0.515746 20.62576-2.836605 28.435633-10.68127l409.501558-448.765817c14.659885-14.732539 14.659885-38.600133 0-53.332672-14.6957-14.732539-38.452777-14.732539-53.148477 0l-384.78769 421.694251-384.78769-421.694251c-14.6957-14.732539-38.451754-14.732539-53.148477 0C58.068022 64.411377 58.068022 88.277948 72.727906 103.01151z"  horiz-adv-x="1024" />

    
    <glyph glyph-name="xialajiantou" unicode="&#58889;" d="M524.817655-124.75851A14 14 0 1 0 560.128-124.75851ZM511.098884 268.59853L511.098884 268.59853C509.522919 269.678684 508.29586 270.86179200000004 507.332085 272.18486700000005L318.579035 451.034744C312.40414 456.884348 313.367379 465.691938 320.725452 470.602628L323.265192 472.307737C330.623266 477.216726 341.702651 476.450534 347.877547 470.602628L524.764033 303.031646 701.648377 470.602628C707.823273 476.450534 718.902124 477.216726 726.260196 472.307737L728.799935 470.602628C736.15801 465.691938 737.121785 456.884348 730.946888 451.034744L542.1933 272.18486700000005C541.229529 270.86179200000004 539.958586 269.678684 538.426502 268.633413L538.382622 268.59853C534.879108 265.291695 529.843511 263.619771 524.807913 263.65465400000005 519.594115 263.619771 514.558517 265.291695 511.098884 268.59853L511.098884 268.59853Z"  horiz-adv-x="1024" />

    
    <glyph glyph-name="sjh-copy" unicode="&#58911;" d="M789.126 453.281h-17.32v311.767c0 19.132-15.508 34.641-34.641 34.641h-450.329c-19.132 0-34.641-15.508-34.641-34.641l0-103.92h-17.32v-138.565h17.32v-519.611c0-19.132 15.508-34.639 34.641-34.639h450.33c19.132 0 34.641 15.507 34.641 34.639l0 311.769h17.32v138.561zM581.281 2.95h-138.563v34.642h138.563l0-34.642zM737.165 89.553c0-9.566-7.755-17.32-17.32-17.32l-415.689-0c-9.566 0-17.32 7.755-17.32 17.32l-0 623.534c0 9.566 7.755 17.323 17.32 17.323h415.689c9.566 0 17.32-7.756 17.32-17.323l-0-623.534z"  horiz-adv-x="1024" />

    
    <glyph glyph-name="icon" unicode="&#59001;" d="M264.9 460.626c154.4 50.269 308.768 100.475 463.159 150.702-39.458-129.681-36.661-259.36 0-389.039l-313.617 85.293c4.858-55.922 17.606-110.396 39.229-163.295-27.713-22.493-60.127-30.986-94.997-32.104-35.821 68.288-54.349 144.095-58.18 226.365l-35.594 9.673c-0.001 37.468-0.001 74.937-0.001 112.405v0zM868.571 306.505c17.604-5.903 27.091-24.957 21.199-42.563-5.893-17.605-24.948-27.093-42.554-21.21l-71.581 24.047c-17.605 5.882-27.091 24.959-21.2 42.564 5.893 17.606 24.949 27.092 42.564 21.189l71.572-24.026zM796.998 510.584c-17.647-5.902-36.671 3.604-42.564 21.21-5.891 17.606 3.595 36.661 21.2 42.564l71.581 24.026c17.606 5.903 36.661-3.604 42.554-21.21 5.892-17.605-3.595-36.66-21.199-42.563l-71.572-24.027zM793.094 386.952c-18.6 0-33.688 15.12-33.688 33.762 0 18.601 15.089 33.72 33.688 33.72h70.463c18.642 0 33.72-15.119 33.72-33.72 0-18.641-15.078-33.762-33.72-33.762h-70.463zM187.363 473.923h39.27c7.841 0 14.23-6.442 14.23-14.29v-114.207c0-7.851-6.39-14.271-14.23-14.271h-39.27c-7.891 0-14.281 6.42-14.281 14.271v114.207c0 7.849 6.39 14.29 14.281 14.29v0zM378.154 287.141c0.611-24.317 3.677-46.313 8.305-66.901 4.599-20.629 10.718-39.623 17.378-57.954 2.527-7 10.263-10.605 17.222-8.079 7.012 2.529 10.605 10.254 8.079 17.254-6.391 17.502-12.169 35.48-16.426 54.515-4.276 19.055-7.115 39.415-7.684 61.763-0.197 7.437-6.318 13.318-13.742 13.131-7.426-0.142-13.319-6.314-13.132-13.729v0zM631.497 538.297c-11.176-42.108-16.653-84.277-16.612-126.531 0.073-42.191 5.665-84.361 16.612-126.47 2.329-8.947 11.485-14.394 20.473-12.012 9 2.298 14.354 11.474 12.056 20.442-10.255 39.417-15.462 78.77-15.536 118.041-0.072 39.228 5.054 78.541 15.536 117.957 2.37 8.99-2.983 18.207-11.983 20.547-8.989 2.338-18.175-2.984-20.546-11.974z"  horiz-adv-x="1024" />

    
    <glyph glyph-name="guanbi" unicode="&#58937;" d="M576 384 896 704C899.913856 710.055488 900.232 738.068563 896 768 865.94944 772.351091 838.364032 772.222381 832 768L512 448 192 768C185.944512 771.913869 157.931456 772.232 128 768 123.648896 737.949472 123.7776 710.364 128 704L448 384 128 64C124.086144 57.944512 123.768 29.931437 128 0 158.05056-4.351091 185.635968-4.222381 192 0L512 320 832 0C838.055488-3.913869 866.068544-4.232 896 0 900.351104 30.050528 900.2224 57.636 896 64L576 384 576 384Z"  horiz-adv-x="1024" />

    
    <glyph glyph-name="weixin" unicode="&#59126;" d="M670.312279 527.859087c10.262748 0 20.418049-0.739851 30.490462-1.861396-27.397004 127.574688-163.785437 222.358519-319.469351 222.358519-174.049209 0-316.622511-118.62382-316.622511-269.271016 0-86.984184 47.43336-158.367026 126.698737-213.764785l-31.667265-95.250459 110.687049 55.508277c39.605059-7.8283 71.381819-15.902194 110.905013-15.902194 9.936313 0 19.789738 0.492211 29.561299 1.257645-6.185892 21.1579-9.771561 43.327851-9.771561 66.347147C401.122104 415.612518 519.909653 527.859087 670.312279 527.859087zM500.06568 613.721726c23.839988 0 39.632689-15.683206 39.632689-39.496589 0-23.758124-15.793724-39.631665-39.632689-39.631665-23.729471 0-47.542853 15.874565-47.542853 39.631665C452.522826 598.037497 476.336208 613.721726 500.06568 613.721726zM278.473617 534.592449c-23.729471 0-47.679977 15.874565-47.679977 39.631665 0 23.813382 23.949482 39.496589 47.679977 39.496589s39.523195-15.683206 39.523195-39.496589C317.996812 550.467014 302.204112 534.592449 278.473617 534.592449zM959.290145 281.086504c0 126.58822-126.671108 229.77545-268.943557 229.77545-150.647196 0-269.298645-103.18723-269.298645-229.77545 0-126.808231 118.651449-229.776473 269.298645-229.776473 31.531165 0 63.336577 7.9644 95.003842 15.902194l86.847061-47.569459-23.813382 79.128254C911.939673 146.450997 959.290145 209.677057 959.290145 281.086504zM603.033922 320.71817c-15.765071 0-31.667265 15.6566-31.667265 31.667265 0 15.793724 15.902194 31.668289 31.667265 31.668289 23.949482 0 39.632689-15.875588 39.632689-31.668289C642.667634 336.37477 626.984428 320.71817 603.033922 320.71817zM777.193648 320.71817c-15.6566 0-31.448278 15.6566-31.448278 31.667265 0 15.793724 15.7927 31.668289 31.448278 31.668289 23.729471 0 39.631665-15.875588 39.631665-31.668289C816.825313 336.37477 800.923119 320.71817 777.193648 320.71817z"  horiz-adv-x="1024" />

    
    <glyph glyph-name="zhidingjiantou" unicode="&#58896;" d="M889.856 399.872l-355.84 348.16c-6.144 6.144-13.824 8.704-22.016 8.704 0 0 0 0 0 0-0.512 0-0.512 0-1.024 0-7.68 0-14.848-3.072-20.992-8.704l-355.84-348.16c-8.704-8.192-8.704-22.016 0-30.208l0 0c8.192-8.192 21.504-8.192 29.696 0l327.168 320 0-657.408c0-11.264 9.216-20.48 20.48-20.48s20.48 9.216 20.48 20.48L531.968 689.664l327.68-320c8.192-8.192 21.504-8.192 29.696 0C898.048 377.856 898.048 391.168 889.856 399.872z"  horiz-adv-x="1024" />

    
    <glyph glyph-name="xiangyou" unicode="&#58936;" d="M761.055557 363.871953c0.512619 0.992555 1.343475 1.823411 1.792447 2.848649 8.800538 18.304636 5.919204 40.703346-9.664077 55.424808L399.935923 756.256202c-19.264507 18.208305-49.631179 17.344765-67.872168-1.888778-18.208305-19.264507-17.375729-49.631179 1.888778-67.872168l316.960409-299.839269L335.199677 82.368284c-19.071845-18.399247-19.648112-48.767639-1.247144-67.872168 9.407768-9.791372 21.984142-14.688778 34.560516-14.688778 12.000108 0 24.000215 4.479398 33.311652 13.439914l350.048434 337.375729c0.672598 0.672598 0.927187 1.599785 1.599785 2.303346 0.512619 0.479935 1.056202 0.832576 1.567101 1.343475C757.759656 357.120172 759.199462 360.608735 761.055557 363.871953z"  horiz-adv-x="1024" />

    
    <glyph glyph-name="suo" unicode="&#58967;" d="M805.46938 454.814836l-52.198849 0L623.197056 454.814836 400.807037 454.814836 400.807037 585.51355c0 61.330834 49.868781 111.198591 111.187335 111.198591 61.328787 0 111.202685-49.867758 111.202685-111.198591l0-58.035788 130.073474 0 0 58.035788c0 133.019573-108.244306 241.265926-241.276159 241.265926-133.025713 0-241.265926-108.24533-241.265926-241.265926l0-130.698714-52.193733 0c-10.115382 0-18.34481-8.191566-18.34481-18.345834l0-476.905714c0-10.110265 8.229428-18.342764 18.34481-18.342764l586.934666 0c10.110265 0 18.339694 8.232498 18.339694 18.342764L823.809073 436.469002C823.809073 446.623269 815.622624 454.814836 805.46938 454.814836zM552.075229 147.067776c-3.710508-3.487428-5.813403-8.321526-5.813403-13.372565l0-62.129013c0-18.920932-15.386432-34.30941-34.267455-34.30941-18.915815 0-34.307364 15.388479-34.307364 34.30941l0 62.129013c0 5.052063-2.046612 9.885138-5.770424 13.372565-11.93175 11.149944-18.517749 26.314319-18.517749 42.639123 0 32.338522 26.305109 58.594513 58.595536 58.594513 32.299637 0 58.600653-26.25599 58.600653-58.594513C570.595025 173.382095 564.020282 158.216697 552.075229 147.067776z"  horiz-adv-x="1024" />

    
    <glyph glyph-name="xiaoxi01" unicode="&#58885;" d="M99.436198-26.68654700000002c0 0 103.353926 84.422761 138.65799 139.169643 0 0 15.349593 16.372899-22.001083 42.467207 0 0-142.068669 125.866662-133.200698 254.803243 0 0-8.18645 235.360426 285.84319 327.457983 0 0 279.378965 74.359568 467.310172-100.966553 0 0 150.766772-126.889969 83.228563-343.830883 0 0-64.12753-155.542542-252.41587-215.576847 0 0-100.284007-30.016641-214.894302-20.466124C451.965184 56.37112400000001 355.432617-42.88752999999997 99.436198-26.68654700000002z"  horiz-adv-x="1024" />

    
    <glyph glyph-name="mingzuoweixinerweima1" unicode="&#58912;" d="M581.253765 176.455915v55.678144l-0.362016-0.362016h111.066676v28.092484l-0.43442-0.362017 28.092484 0.362017v-55.678145h-27.006435v-54.157675h26.572015v54.519692h28.02008v-54.592096h27.296048v54.592096h28.309694v-28.092484h27.368451l-0.362017 0.362016v-27.658064H885.347663v-28.092484h110.632256l-0.362016 0.43442v-27.875274h27.875274v-55.316128h-55.533338v-27.875274l0.362016 0.362016h-27.58566v55.460935h26.499611V92.757689H914.308987v-81.236512h27.223644q-0.43442-14.480662-0.796436-28.961324l0.362016 0.362016H885.347663V-44.808598h-28.382097v26.789224h-27.658064v-25.775578h-27.658064v27.006435h-27.440854l0.362016-0.362017v55.316128h-28.02008v28.454501h-26.789225v27.223644h53.650852v27.296047H663.793537v54.519692h-27.730467v-25.920384h-27.730467v27.078837h-27.513258z m221.698932-164.862335h81.308917V92.757689h-81.308917zM304.600721 647.22223v-111.066676h27.585661l-0.362017 0.43442v-28.020081l0.362017 0.362017h-28.454501v-54.881708h-54.881708v26.065191H138.579934v-26.934031H110.632256V425.812911h-28.092484v27.730467h-27.36845l0.362016-0.362016V481.563459h26.861628v27.151241h-27.368451v26.572014h-27.513258v-82.177756l0.362017 0.362017H0V619.346956h28.382097V647.367037h54.736902v26.354804h26.644418v-109.980626h-26.861628V618.405713H56.329774v-54.230078h26.934031v-27.078838h83.408612v-27.513257h82.105353v26.934031h27.006434v54.085271h-26.572014v-54.519691l-82.901789 0.579226-0.506823 27.513258h27.658064v27.730467h28.526904v27.875274H277.159867v27.440854zM497.77275 232.134059v-27.368451h27.730467v-28.309693l0.43442 0.362016h-28.092484v-28.02008l0.362017 0.362016h-28.309694v54.085272h-27.368451v-82.105353l0.362017 0.43442h-56.040162v26.354805H360.423672v-54.447289h26.065192v-55.316128h-26.934031v28.454501h-27.947678V92.757689h-26.282401v-54.302481h54.592095v-28.382098h26.354805V-44.808598h-25.775578v-27.658064h26.861627v-54.881708H359.699639v28.23729h-28.23729V-44.808598h-27.296048l0.43442-0.362016v27.513257H277.159867v54.954112h-27.875274v28.526903l-0.362016-0.362016h27.440854v55.316128h55.026515v55.243725h-26.065192v55.750548h26.861628l-0.362017 0.43442v-26.934031h28.020081v26.934031l-0.362017-0.43442h54.736902l1.448066 16.073534h54.157675l1.08605-16.073534h27.296048zM193.678852 896v-193.678852H0V896z m-28.237291-28.961324H28.816517v-136.263027h136.625044zM1023.637983 702.321148h-193.606448V896h193.606448z m-28.961323 28.309694V867.473096h-136.263028v-136.842254zM0 66.040868h193.678852v-193.678851H0z m28.309694-165.007141H164.934738v136.552641H28.309694zM913.222937 591.544085v54.519692H885.347663v-26.427208h-27.223644V592.340522h-27.730467v26.716821h-27.802871l0.43442-0.362017v27.513258h53.940465v27.585661h83.408612v-26.065192h27.223644v26.934031h55.967758v-193.678852h-27.875274l0.362017-0.434419v28.309693h-28.020081l0.362017-0.362016v28.020081l-0.362017-0.43442h26.934031V618.55052h-53.723255v-26.644418h-28.382097zM719.544085 785.150534v54.881708h26.572015V868.559146h-54.592095l0.362016-0.362017V896h82.974193v-55.098918h26.934031v-137.928304h-26.427208V729.182776h-27.730468v-25.775578h-28.092484v54.447288l-0.434419-0.362016h26.934031v28.02008H718.820052zM1023.637983 287.305381v-27.658064h-83.263805v-28.164888h-27.151241v-27.36845H885.347663v-27.658064l-55.678145 0.434419 0.362017-0.362016v55.750548l-0.362017-0.362017h54.519692v28.961324h-25.920384v26.716821h82.829385v27.585661h27.440854v-27.875274zM332.041575 896v-54.881708h27.440854v-55.967758l0.43442 0.362016h-28.092484v-28.02008l0.362017 0.362016h-55.750548V729.906809h0.724033-27.513257v-27.151241h-27.223645V812.012161H248.198543v-25.630771h55.895355V896zM719.326875-127.637983h-55.316128v55.967757h26.572015v54.012869h-26.861628v-25.920385h-27.585661v54.519692h27.658064v82.974192h28.309694v-83.046595h27.440854zM913.222937 370.134766v27.513258h-27.078837v27.730467h26.354804v28.237291h56.040161v-54.736902h27.875274V425.812911h27.296048v-83.118999h-27.875274v26.934031h-27.296048v-26.934031h-28.309694v27.802871h-27.36845zM138.579934 315.253058h-55.026515v27.658064h-28.382097l0.362016-0.43442v26.934031H27.513257v-26.934031l0.362017 0.43442H0V425.812911h27.875274v27.730467l-0.362017-0.362016h28.020081l-0.362016 0.362016v-55.822951h28.382097v-27.151241H110.632256v-28.382097h27.513258v-27.368451zM885.347663-127.637983h-110.704659v28.309693H747.781376v82.177756h26.934031l-0.362017 0.362017v-55.967758h28.526904v-27.078838H885.347663zM1023.637983-72.321855h-27.440854v26.934031h-27.296047v-27.151241h-28.454501l0.362017 55.750548-0.362017-0.362017h28.020081v28.020081l-0.362017-0.362017h28.237291v-27.440854h27.223644zM470.549106-44.808598v-27.513257h54.374885v-27.223645H497.98996v-28.4545h-27.658064v27.875274h-27.875274l0.43442-0.362017V-44.808598zM248.99498-127.637983v54.736901h27.296047V-44.808598h28.309694l-0.43442 0.362017v-83.191402zM276.725447 896v-54.374885h-55.388531V896zM27.875274 315.180655v-110.849466H0V315.035848zM996.197129 121.139786V204.331189h27.513258v-82.974193h-27.875274zM27.513257 148.797851l28.020081 0.434419v-55.533338H0v27.658064h27.875274v27.875274zM968.321855-127.637983v27.658064h55.316128v-27.658064zM0 176.673125h27.513257v-27.875274l0.362017 0.434419H0zM470.549106 868.124726h-27.875274V896h27.658064zM414.726154-127.637983v27.513257h27.875274l-0.43442 0.362017v-27.875274zM553.378491-127.637983v27.875274H581.253765v-27.875274zM442.891042 757.49247v26.934031h54.809304v-25.992788h27.151241v26.354804h28.237291V813.170614h83.481015v-28.02008h-27.513257v-27.368451H581.253765v-82.467369h-27.006434v-28.237291h53.795658v-27.223644H581.253765V592.340522h-27.296047v26.789224H525.503217v27.006434h-26.499611v-26.572014h26.934031v-55.243725h-55.750548l0.362017-0.362016v27.223644h-27.513258V674.880294H414.726154l0.362017-0.43442v28.092484l-0.362017-0.362016h28.020081V729.906809l-0.362017-0.362017h27.585661v-26.209997h27.296048v25.920384h-27.585661v28.961324h-27.223644z m83.336208-54.447289H552.292441v25.992788h-26.065191zM580.819345-100.197129v27.368451h-27.223644V-44.808598H470.187089v27.513258h-54.447288v54.954111h27.078837v83.843032l-0.362016-0.43442h55.750548v28.164887l-0.362017-0.362016h28.020081v28.02008l-0.43442-0.362016H581.253765l-0.43442 0.362016v-28.309693h-27.223644v-27.368451h-28.164887v-55.316128l0.362016 0.362016h-54.519691v-56.257371h27.223644V-15.847274h27.730467v27.006434H581.253765v-27.368451h26.572015v-83.698225zM359.844446 398.22725h-55.750548v-28.02008l0.362017 0.362016H277.159867v-27.730467h-55.026515v-27.151241h53.578449v-28.164887H193.534045l0.362017-0.43442v28.092484h-28.092484l0.362016-0.362017v28.526904h26.716821v27.296047h-27.078837v27.513258h27.658064V425.812911h28.4545v-27.223644H277.159867V425.812911h55.026515V508.859506l-0.362017-0.362016h28.020081l-0.43442 0.362016v-110.994272zM359.482429 785.150534h27.440855v-27.658064h55.967758l-0.43442 0.362016V729.906809l0.362016 0.362017H414.726154v-28.020081l0.362017 0.362017h-28.382097v26.644417h-26.065192v-54.809305h54.592095L414.726154 674.880294v-54.519692h-27.078837v26.427208H304.166301l0.43442 28.020081-0.43442-0.362017h28.020081V757.854486l-0.362017-0.362016h28.020081v28.02008zM691.524005 591.471682H718.820052v-82.322562h27.296048v-28.382097h56.184968l-0.362017 0.362016v-28.020081l0.43442 0.362017h-28.020081V425.812911l0.362017 0.43442h-28.020081l0.362017-0.43442v27.730467h-55.750548l0.362016-0.362016v28.02008H663.793537l0.43442-0.362016v28.02008l-0.43442-0.362016h28.020081V591.833699zM166.237998 232.206463h-55.243725v-27.151241h-26.934031V286.436541h26.137594v-25.703175h28.309694v54.447289l-0.362016-0.43442h28.02008l-0.362016 0.362016v-28.02008h28.092484l-0.362017 0.43442V259.2853l0.43442 0.362017h-28.164887v-28.020081zM82.829386 149.23227H110.632256v27.223645h83.263806l-0.362017 0.434419v-28.02008l0.362017 0.362016h-28.092484v-28.02008l0.362016 0.43442h-54.881708v-27.006435h-28.4545zM746.840133 425.812911v-27.296048h-27.078838v-28.02008h-28.23729l0.362016-0.362017v27.513258h-27.223644l-1.230856 27.368451-15.132292 1.230856V480.839426h15.856325l-0.43442 0.362016v-28.02008h28.020081l-0.362017 0.362016V425.812911h55.750548zM802.156261 453.181362H856.38634v-54.954112h-54.012869v-26.789224h-27.875274v54.519692l-0.362017-0.43442h28.020081v28.02008zM193.896062 176.455915v27.440854h-27.658064v28.309694l-0.362017-0.43442h28.020081v28.092484l-0.43442-0.362017H248.198543v-54.664498h-27.078837v-28.382097l0.43442 0.362016h-28.020081zM304.093898 370.20717h27.585661v-27.006435h43.441985V288.246624h-42.717952v26.137594h-27.875274v56.184968zM830.248745 314.818638v27.368451h27.151241v27.947677h55.822951l-0.43442 0.362017v-55.316128h-82.974192zM802.156261 314.818638h28.092484l-0.43442 0.362017v-83.336209l0.362017 0.362017-55.750548-0.362017v55.967758h28.092484v27.368451zM691.813618 674.880294H609.563459v54.374885h26.137595v-25.992788h27.80287v25.630772h27.947677v-54.447289zM802.518278 480.767023v27.513257h27.36845V563.379198h27.223645v-26.644418h27.513257v-27.223644h-26.354804v-28.309694h-56.184968zM221.119706 176.455915h54.592095v-27.006435h-26.065191V121.719013h-56.112565l0.362017-0.43442v27.947677l-0.362017-0.362016h28.020081v28.02008zM332.186382 536.155554v27.585661h55.316128l-0.362016 0.362016v-27.513257h27.15124v-27.802871h-54.809305l0.43442-0.362016v28.092484h-28.092484zM691.886021 259.864527h-26.934031v54.954111h54.592095l-0.362016 0.43442 0.43442-28.020081h-28.092484V259.2853zM691.451601 674.518278H718.820052v-27.730468h28.309694l-0.362016 0.362017v-27.585661h-55.243725l0.362016-0.362017V674.880294zM691.524005 619.564166v-28.092484l0.362016 0.43442h-55.750548l0.43442-0.362017V645.918971h27.006435v-26.789225h28.309693zM636.135473 785.51255l83.408612-0.362016-0.434419 0.362016v-28.02008l0.434419 0.362016H636.135473zM719.544085 314.818638v26.934031h82.612176v-26.934031l0.362017 0.43442H718.820052zM636.569893 536.517571h-26.934031v54.954111h26.934031l-0.43442 0.362017v-55.750548zM774.425794 591.833699v-54.447289H747.781376v54.012869h26.934031zM691.524005 370.569186v-26.934031h-43.441986v26.572015h43.441986zM553.088878 536.517571v-15.856325h-54.157675v15.421905h54.592095zM995.835113 481.201442v-28.092484h-27.658064l0.43442 28.020081-0.43442-0.362016h28.02008zM332.186382 231.772043v26.934031h27.296047v-26.934031l0.362017 0.43442h-28.020081zM968.539065 481.201442h-27.658064v27.658064l-0.43442-0.362016h28.020081l-0.362017 0.362016v-28.02008zM940.881001 508.859506H914.308987v27.296048h26.861627l-0.362016 0.43442v-28.020081zM55.171322 148.797851v26.93403h28.02008v-26.93403zM940.881001 536.155554V563.379198h27.296048v-26.934031l0.362016 0.43442h-28.02008zM664.227957 508.859506h-27.658064v27.658065l-0.362016-0.43442h27.58566v-27.658064zM553.523298 536.083151v26.934031h26.572014v-26.499611h-27.006434zM193.534045 121.719013v-26.934031h-27.296047V121.719013l-0.362017-0.43442h28.020081zM470.187089 564.248038v-26.934031H443.687478v26.499611h27.006434zM912.860921 591.906102v-26.934031h-26.572015v26.572014h27.006434zM249.284593 66.185675h-26.934031V92.757689h26.499611v-27.006434zM387.50251 563.741215v26.934031h26.572014v-26.499611h-26.93403zM774.860214 591.399279v27.296047h28.23729l-0.43442 0.362017v-27.223644h-28.23729zM358.903203 591.906102h-25.847981V618.405713h25.775578zM248.198543-17.94697v-25.920385h-25.703174v25.920385zM747.202149 646.78781v26.861628h26.572015v-26.499611h-27.006434zM498.20717 231.772043v15.928728h26.572014v-15.494308h-27.006434zM581.253765 232.134059h-27.223644l-0.724033 15.494308h27.585661v-15.928728zM359.410026 397.865234h15.928728v-26.572015h-15.494308V398.299654zM304.600721 674.880294H277.159867v55.388532l-0.362016-0.43442h27.658064v-55.316128zM166.237998 591.833699v-28.020081H139.59358v28.020081zM193.896062 591.471682h-28.092484V618.405713h28.092484zM193.099625 673.649438v-25.920385h-25.920384v25.920385zM691.524005 868.559146v-26.934031h-54.230079V868.197129h54.664499zM553.523298 812.808598h-55.750548v28.02008h55.750548zM470.549106 840.539065l-0.43442 28.020081h28.02008v-28.020081l-28.02008 0.43442zM27.513257 314.818638l0.362017 28.092484-0.362017-0.43442h28.020081l-0.362016 0.43442v-28.092484zM388.081737 840.032242h25.920384v-26.137594h-25.920384zM470.187089 840.901082v-26.934031H443.687478v26.572014h27.006434zM885.347663 176.890334h27.658064v27.658065h54.592095v-27.368451h-26.065191v-28.382097H885.347663v28.092483zM580.819345 10.50753v26.934031h55.750548v-26.934031zM718.820052 10.50753v28.020081h28.020081v-28.020081zM885.347663-44.808598h27.368451v-27.658064h28.309694v-28.020081H885.347663V-44.808598zM968.177049 342.838719h28.02008v-28.020081h-28.02008v28.020081zM664.227957 93.481722h-27.368451v-26.572014h-56.040161v27.006434h27.440854V121.719013h55.967758zM857.037969 65.244432v-25.920385h-26.209998v25.920385zM718.820052 259.2853v28.020081h26.934031V259.2853zM774.860214 204.113979h-28.020081v28.092484h28.020081v-28.092484zM581.253765 93.481722h-28.092484V121.719013H581.253765zM193.896062 425.812911h-27.658064v-27.658064H138.869547v-27.658064H110.632256V425.812911h27.513258v27.730467h55.750548zM56.402178 840.104645h81.164109v-81.815739H56.402178zM968.104645 839.815032V758.868133h-81.743336V839.815032zM137.421481-71.670226H56.112565v81.236513H137.421481zM525.430814 65.823658H552.292441v-26.572014h-26.427207v27.006434z"  horiz-adv-x="1024" />

    
    <glyph glyph-name="xiangyou1" unicode="&#58897;" d="M222.862 419.753l359.021-386.738h165.645l-359.020 386.737 359.021 359.006h-165.645l-359.021-359.006zM222.862 419.753z"  horiz-adv-x="1000" />

    
    <glyph glyph-name="arrow-bottom" unicode="&#58886;" d="M532.207 177.866v0c3.079 1.777 6.39 3.079 9.112 5.802 0.477 0.594 0.827 1.064 1.303 1.539 0.594 0.709 1.539 0.946 2.128 1.54l319.434 331.383c8.519 8.757 12.781 20.121 12.781 31.483 0 11.836-4.733 23.79-13.964 32.666-18.107 17.398-46.871 16.924-64.265-1.183l-288.071-298.956-283.922 300.139c-17.28 18.225-46.040 19.057-64.265 1.777-18.226-17.281-19.057-46.040-1.777-64.265l316.355-334.462c13.844-14.676 35.149-17.399 52.429-9.113 0.945 0.35 1.777 1.182 2.722 1.653v0zM532.207 177.866z"  horiz-adv-x="1024" />

    
    <glyph glyph-name="weibiaoti--" unicode="&#58888;" d="M901.686 90.86l-195.967 196.072c-2.32 2.32-4.847 3.994-7.218 5.876 33.099 50.784 52.382 111.312 52.382 176.557 0 179.109-145.081 324.216-324.242 324.216-179.004 0-324.24-145.107-324.24-324.216 0-179.159 145.236-324.267 324.241-324.267 65.168 0 125.748 19.386 176.634 52.51 1.857-2.5 3.558-4.872 5.826-7.192l196.019-196.069c13.354-13.328 30.831-19.926 48.309-19.926s34.904 6.598 48.257 19.926c26.551 26.654 26.551 69.859 0 96.513zM426.693 247.438c-122.345 0-221.849 99.557-221.849 221.875 0 122.319 99.556 221.824 221.849 221.824s221.849-99.556 221.849-221.824c0.001-122.268-99.555-221.875-221.849-221.875z"  horiz-adv-x="1024" />

    
    <glyph glyph-name="yijianfankui" unicode="&#59035;" d="M549.95 387.462c56.81 37.972 94.47 103.88 94.47 178.692 0 117.391-92.703 212.89-206.649 212.89-113.941 0-206.634-95.499-206.634-212.89 0-74.812 37.655-140.72 94.46-178.692-150.873-49.164-260.548-194.748-260.548-366.23 0-14.35 11.293-25.98 25.22-25.98s25.219 11.63 25.219 25.98c0 183.094 144.572 332.054 322.283 332.054 177.716 0 322.295-148.96 322.295-332.053 0-14.351 11.293-25.982 25.22-25.982s25.219 11.631 25.219 25.982c-0.001 171.48-109.679 317.064-260.555 366.229zM281.57 566.154c0 88.737 70.067 160.929 156.2 160.929 86.137 0 156.207-72.192 156.207-160.93 0-88.73-70.07-160.907-156.207-160.907-86.132 0-156.2 72.178-156.2 160.908zM813.897 654.837c-78.885 0-142.832-65.878-142.832-147.14 0-20.072 3.907-39.202 10.97-56.636l-54.127-42.898 74.216 7.927c26.169-33.843 66.508-55.54 111.774-55.54 78.882 0 142.828 65.88 142.828 147.145 0 81.264-63.947 147.142-142.829 147.142zM742.966 534.45c12.193 0 22.067-10.173 22.067-22.733 0-12.557-9.873-22.733-22.067-22.733-12.19 0-22.068 10.176-22.068 22.733 0.001 12.56 9.879 22.733 22.068 22.733z m70.931-45.466c-12.193 0-22.067 10.176-22.067 22.733 0 12.56 9.873 22.733 22.067 22.733 12.19 0 22.064-10.173 22.064-22.733 0-12.557-9.874-22.733-22.064-22.733z m70.929 0c-12.19 0-22.068 10.176-22.068 22.733 0 12.56 9.877 22.733 22.068 22.733 12.19 0 22.067-10.173 22.067-22.733-0.001-12.557-9.877-22.733-22.067-22.733z"  horiz-adv-x="1024" />

    
    <glyph glyph-name="weibo" unicode="&#58929;" d="M749.7 394.5c-38.4 7.5-19.8 28.2-19.8 28.2s37.6 62.1-7.4 107.2c-55.8 55.9-191.5-7.1-191.5-7.1-51.8-16.1-38.1 7.4-30.8 47.3 0 47-16.1 126.6-154.1 79.6C208.3 602.4 89.9 436.8 89.9 436.8 7.6 326.7 18.5 241.6 18.5 241.6 39 53.9 238.2 2.3 393.1-9.9c163-12.8 382.9 56.3 449.7 198.2 66.7 142.2-54.5 198.5-93.1 206.2zM405.2 43.1c-161.8-7.6-292.6 73.7-292.6 181.9 0 108.3 130.8 195.1 292.6 202.6 161.9 7.5 293-59.3 293-167.4 0-108.2-131.1-209.8-293-217.1z m-32.3 313.1C210.2 337.1 229 184.4 229 184.4s-1.7-48.3 43.6-73c95.2-51.7 193.3-20.4 242.8 43.7 49.6 64.1 20.5 220-142.5 201.1z m-41-214.3c-30.4-3.6-54.9 14-54.9 39.4s21.8 51.9 52.2 55.1c34.9 3.3 57.6-16.8 57.6-42.3 0-25.3-24.7-48.8-54.9-52.2z m95.9 81.8c-10.3-7.7-23-6.6-28.4 2.6-5.7 9-3.5 23.5 6.9 31 12.1 9 24.6 6.4 30-2.6 5.5-9.2 1.6-23-8.5-31zM829 460.6c13.1 0 24.3 9.7 26.1 22.4 0.2 0.9 0.4 1.8 0.4 2.8C875.3 664.8 709 634 709 634c-14.8 0-26.6-12-26.6-26.9 0-14.7 11.8-26.7 26.6-26.7 119.4 26.4 93.1-93.2 93.1-93.2 0-14.8 12.1-26.6 26.9-26.6zM809.6 773c-57.5 13.5-116.6 1.9-133.2-1.3-1.3-0.1-2.5-1.3-3.7-1.6-0.6-0.1-0.9-0.7-0.9-0.7-16.3-4.6-28.3-19.8-28.3-37.7 0-21.3 17.3-38.9 38.8-38.9 0 0 20.9 2.8 35.1 8.4 14.1 5.7 133.2 4.2 192.3-95.3 32.3-72.6 14.2-121.2 11.9-129 0 0-7.7-18.9-7.7-37.5 0-21.4 17.3-34.9 38.7-34.9 17.9 0 32.9 2.4 37.3 32.7h0.2C1053.7 649.3 912.5 749 809.6 773z"  horiz-adv-x="1024" />

    
    <glyph glyph-name="fangzi" unicode="&#58926;" d="M944.733091 114.129455c0-92.148364-74.705455-166.853818-166.853818-166.853819H234.496c-92.148364 0-166.853818 74.705455-166.853818 166.853819V657.501091c0 92.148364 74.705455 166.865455 166.853818 166.865454h543.383273c92.148364 0 166.853818-74.705455 166.853818-166.865454v-543.371636zM511.278545 379.275636m-323.642181 0a323.642182 323.642182 0 1 1 647.284363 0 323.642182 323.642182 0 1 1-647.284363 0ZM509.090909 382.906182m-245.096727 0a245.096727 245.096727 0 1 1 490.193454 0 245.096727 245.096727 0 1 1-490.193454 0ZM760.401455 408.424727l-46.557091-54.702545a11.962182 11.962182 0 0 0-16.872728-1.338182L503.959273 516.666182 308.328727 354.176a12.311273 12.311273 0 0 0-17.070545 1.338182l-47.092364 53.992727a11.636364 11.636364 0 0 0 1.361455 16.663273L494.545455 633.018182c0.919273 0.768 1.989818 1.198545 3.03709 1.640727 4.386909 3.700364 10.821818 4.002909 15.348364 0.151273L759.04 425.309091c5.038545-4.293818 5.655273-11.845818 1.361455-16.884364zM559.941818 314.949818c11.415273 6.528 30.952727 2.478545 39.028364-0.930909 16.907636-6.888727 35.909818-35.909818 35.909818-35.909818h11.973818s24.785455 30.522182 47.872 35.909818c5.050182 1.245091 40.785455 4.724364 52.352-19.642182 6.469818-13.661091 10.251636-30.731636 6.213818-47.232-3.072-10.344727-8.110545-20.119273-15.162181-30.254545-11.008-15.813818-26.914909-32.453818-47.77891-53.317818-39.144727-39.156364-42.484364-41.088-42.484363-41.088h-13.986909s-3.246545 1.885091-41.413818 40.157091c-33.338182 33.454545-51.037091 54.504727-61.335273 81.698909-3.700364 8.040727-12.136727 49.245091 28.811636 70.609454zM511.755636 479.837091s0.151273-0.360727 159.022546-127.941818v-20.526546c-15.918545-11.682909-34.013091-26.274909-34.013091-26.274909s-14.277818 25.728-36.817455 34.641455c-10.740364 4.433455-37.783273 6.295273-53.015272-2.141091-12.683636-6.178909-43.764364-32.116364-41.262546-73.995637 0.546909-6.132364 1.489455-11.880727 2.827637-17.338181 6.749091-27.613091 23.552-48.162909 49.256727-73.949091H347.566545a11.985455 11.985455 0 0 0-11.973818 11.973818V351.895273c157.975273 126.964364 159.034182 127.941818 159.034182 127.941818 4.712727 3.735273 12.404364 3.735273 17.128727 0z"  horiz-adv-x="1024" />

    
    <glyph glyph-name="dianzan1" unicode="&#58899;" d="M782.036 448.35h-172.29c66.761 246.563-45.998 259.156-45.998 259.156-47.791 0-37.884-37.791-41.498-44.092 0-120.58-128.074-215.065-128.074-215.065v-341.946c0-33.754 45.998-45.91 64.042-45.91h258.866c24.363 0 44.202 63.892 44.202 63.892 64.043 217.77 64.043 282.564 64.043 282.564 0.001 44.993-43.293 41.398-43.293 41.398v0 0zM782.036 448.35zM323.472 448.237h-103.167c-21.306 0-21.635-20.927-21.635-20.927l21.306-344.864c0-21.95 21.987-21.95 21.987-21.95h89.291c18.602 0 18.437 14.52 18.437 14.52v347.069c0 26.486-26.221 26.151-26.221 26.151v0 0zM323.472 448.237z"  horiz-adv-x="1024" />

    
    <glyph glyph-name="qq1" unicode="&#58880;" d="M512 896c-282.767 0-511.979-229.221-511.979-512s229.211-512 511.979-512 511.979 229.221 511.979 512-229.211 512-511.979 512zM793.886 224.427c-13.223-12.342-35.924 1.102-57.744 31.297-9.477-25.566-21.819-49.149-36.144-70.309 30.855-11.020 50.692-28.212 50.692-47.608 0-33.501-59.287-60.611-132.458-60.611-43.418 0-81.767 9.477-106.010 24.244-24.023-14.767-62.593-24.244-106.010-24.244-73.172 0-132.458 27.109-132.458 60.611 0 19.175 19.836 36.586 50.692 47.608-14.546 21.159-26.667 44.742-36.144 70.309-21.819-29.975-44.519-43.64-57.744-31.297-18.073 16.971-11.24 76.922 15.647 133.785 6.171 13.004 12.783 24.685 19.615 34.823 3.746 165.304 112.622 297.987 246.181 297.987h0.441c133.559 0 242.435-132.463 246.181-297.987 6.833-10.139 13.444-21.82 19.615-34.823 26.67-56.864 33.723-116.814 15.65-133.785z"  horiz-adv-x="1024" />

    
    <glyph glyph-name="xiangzuo-copy" unicode="&#58983;" d="M849.9846000000001 392.55750000000006l-382.95509999999996 412.52030000000013-176.68844945769544 5.684341886080802e-14 382.95509999999996-412.52030000000013-382.9551000000001-382.94039999999984L467.02955817144465 9.617100000000164 849.9846000000001 392.55750000000006zM849.9846000000001 392.55750000000006"  horiz-adv-x="1000" />

    


  </font>
</defs>
</svg>
